<svg width="38" height="32" viewBox="0 0 38 32" fill="none" xmlns="http://www.w3.org/2000/svg">
<mask id="path-1-inside-1" fill="white">
<path fill-rule="evenodd" clip-rule="evenodd" d="M2.74258 2.74258C-0.914191 6.39934 -0.914192 12.3281 2.74257 15.9849L18.7576 32L18.7951 31.9625L18.8326 32L34.773 16.0596C38.4298 12.4029 38.4298 6.47406 34.773 2.81729C31.1162 -0.839474 25.1874 -0.839474 21.5307 2.81729L18.7951 5.55281L15.9849 2.74258C12.3281 -0.914193 6.39934 -0.914191 2.74258 2.74258Z"/>
</mask>
<path d="M2.74257 15.9849L3.44968 15.2778L2.74257 15.9849ZM2.74258 2.74258L3.44968 3.44968H3.44968L2.74258 2.74258ZM18.7576 32L18.0505 32.7071L18.7576 33.4142L19.4647 32.7071L18.7576 32ZM18.7951 31.9625L19.5022 31.2554L18.7951 30.5483L18.088 31.2554L18.7951 31.9625ZM18.8326 32L18.1255 32.7071L18.8326 33.4142L19.5397 32.7071L18.8326 32ZM34.773 16.0596L34.0659 15.3525L34.773 16.0596ZM34.773 2.81729L34.0659 3.5244V3.5244L34.773 2.81729ZM21.5307 2.81729L22.2378 3.5244L21.5307 2.81729ZM18.7951 5.55281L18.088 6.25992L18.7951 6.96703L19.5022 6.25992L18.7951 5.55281ZM15.9849 2.74258L16.692 2.03547V2.03547L15.9849 2.74258ZM3.44968 15.2778C0.183439 12.0116 0.18344 6.71593 3.44968 3.44968L2.03547 2.03547C-2.01182 6.08276 -2.01182 12.6447 2.03547 16.692L3.44968 15.2778ZM19.4647 31.2929L3.44968 15.2778L2.03547 16.692L18.0505 32.7071L19.4647 31.2929ZM18.088 31.2554L18.0505 31.2929L19.4647 32.7071L19.5022 32.6696L18.088 31.2554ZM19.5397 31.2929L19.5022 31.2554L18.088 32.6696L18.1255 32.7071L19.5397 31.2929ZM34.0659 15.3525L18.1255 31.2929L19.5397 32.7071L35.4801 16.7667L34.0659 15.3525ZM34.0659 3.5244C37.3321 6.79064 37.3321 12.0863 34.0659 15.3525L35.4801 16.7667C39.5274 12.7194 39.5274 6.15748 35.4801 2.11019L34.0659 3.5244ZM22.2378 3.5244C25.504 0.258157 30.7996 0.258157 34.0659 3.5244L35.4801 2.11019C31.4328 -1.93711 24.8708 -1.9371 20.8236 2.11019L22.2378 3.5244ZM19.5022 6.25992L22.2378 3.5244L20.8236 2.11019L18.088 4.84571L19.5022 6.25992ZM15.2778 3.44968L18.088 6.25992L19.5022 4.84571L16.692 2.03547L15.2778 3.44968ZM3.44968 3.44968C6.71593 0.18344 12.0116 0.183438 15.2778 3.44968L16.692 2.03547C12.6447 -2.01182 6.08276 -2.01182 2.03547 2.03547L3.44968 3.44968Z" fill="#0F0F0F" mask="url(#path-1-inside-1)"/>
</svg>
