<svg width="57" height="48" viewBox="0 0 57 48" fill="none" xmlns="http://www.w3.org/2000/svg">
<mask id="path-1-inside-1" fill="white">
<path fill-rule="evenodd" clip-rule="evenodd" d="M4.11386 4.11386C-1.37129 9.59902 -1.37129 18.4922 4.11387 23.9774L28.1364 47.9999L28.1926 47.9437L28.2489 48L52.1595 24.0894C57.6447 18.6043 57.6447 9.71108 52.1595 4.22593C46.6743 -1.25923 37.7812 -1.25924 32.296 4.22592L28.1927 8.32922L23.9774 4.11387C18.4922 -1.37129 9.59902 -1.37129 4.11386 4.11386Z"/>
</mask>
<path fill-rule="evenodd" clip-rule="evenodd" d="M4.11386 4.11386C-1.37129 9.59902 -1.37129 18.4922 4.11387 23.9774L28.1364 47.9999L28.1926 47.9437L28.2489 48L52.1595 24.0894C57.6447 18.6043 57.6447 9.71108 52.1595 4.22593C46.6743 -1.25923 37.7812 -1.25924 32.296 4.22592L28.1927 8.32922L23.9774 4.11387C18.4922 -1.37129 9.59902 -1.37129 4.11386 4.11386Z" fill="#0F0F0F"/>
<path d="M4.11387 23.9774L3.40676 24.6845L4.11387 23.9774ZM4.11386 4.11386L4.82097 4.82097L4.11386 4.11386ZM28.1364 47.9999L27.4293 48.7071L28.1364 49.4142L28.8435 48.7071L28.1364 47.9999ZM28.1926 47.9437L28.8997 47.2366L28.1926 46.5295L27.4855 47.2366L28.1926 47.9437ZM28.2489 48L27.5418 48.7071L28.2489 49.4142L28.956 48.7071L28.2489 48ZM52.1595 24.0894L51.4524 23.3823V23.3823L52.1595 24.0894ZM52.1595 4.22593L51.4524 4.93303L52.1595 4.22593ZM32.296 4.22592L33.0031 4.93302L32.296 4.22592ZM28.1927 8.32922L27.4856 9.03632L28.1927 9.74343L28.8998 9.03632L28.1927 8.32922ZM23.9774 4.11387L24.6845 3.40676L23.9774 4.11387ZM4.82097 23.2703C-0.273657 18.1756 -0.273658 9.9156 4.82097 4.82097L3.40676 3.40676C-2.46892 9.28244 -2.46892 18.8088 3.40676 24.6845L4.82097 23.2703ZM28.8435 47.2928L4.82097 23.2703L3.40676 24.6845L27.4293 48.7071L28.8435 47.2928ZM27.4855 47.2366L27.4293 47.2928L28.8435 48.7071L28.8997 48.6509L27.4855 47.2366ZM28.956 47.2929L28.8997 47.2366L27.4855 48.6509L27.5418 48.7071L28.956 47.2929ZM51.4524 23.3823L27.5418 47.2929L28.956 48.7071L52.8666 24.7965L51.4524 23.3823ZM51.4524 4.93303C56.547 10.0277 56.547 18.2877 51.4524 23.3823L52.8666 24.7965C58.7423 18.9209 58.7423 9.3945 52.8666 3.51882L51.4524 4.93303ZM33.0031 4.93302C38.0977 -0.161605 46.3578 -0.161598 51.4524 4.93303L52.8666 3.51882C46.9909 -2.35686 37.4646 -2.35687 31.5889 3.51881L33.0031 4.93302ZM28.8998 9.03632L33.0031 4.93302L31.5889 3.51881L27.4856 7.62211L28.8998 9.03632ZM23.2703 4.82097L27.4856 9.03632L28.8998 7.62211L24.6845 3.40676L23.2703 4.82097ZM4.82097 4.82097C9.9156 -0.273659 18.1756 -0.273657 23.2703 4.82097L24.6845 3.40676C18.8088 -2.46892 9.28244 -2.46892 3.40676 3.40676L4.82097 4.82097Z" fill="#0F0F0F" mask="url(#path-1-inside-1)"/>
</svg>
