<svg width="26" height="23" viewBox="0 0 26 23" fill="none" xmlns="http://www.w3.org/2000/svg">
<path fill-rule="evenodd" clip-rule="evenodd" d="M2.75452 3.02722C0.415158 5.36658 0.415162 9.15944 2.75452 11.4988L12.9999 21.7442L13.0239 21.7202L13.0479 21.7442L23.2455 11.5466C25.5848 9.2072 25.5848 5.41435 23.2455 3.07499C20.9061 0.735627 17.1133 0.735626 14.7739 3.07499L13.0239 4.82502L11.2261 3.02723C8.88673 0.687866 5.09388 0.687864 2.75452 3.02722Z" fill="#FAFAFA"/>
<path d="M2.75452 11.4988L3.10808 11.1452L2.75452 11.4988ZM2.75452 3.02722L3.10807 3.38078L2.75452 3.02722ZM12.9999 21.7442L12.6463 22.0977L12.9999 22.4513L13.3535 22.0977L12.9999 21.7442ZM13.0239 21.7202L13.3774 21.3666L13.0239 21.0131L12.6703 21.3666L13.0239 21.7202ZM13.0479 21.7442L12.6943 22.0977L13.0479 22.4513L13.4014 22.0977L13.0479 21.7442ZM23.2455 11.5466L23.599 11.9001L23.2455 11.5466ZM23.2455 3.07499L23.599 2.72143V2.72143L23.2455 3.07499ZM14.7739 3.07499L15.1275 3.42854L14.7739 3.07499ZM13.0239 4.82502L12.6703 5.17857L13.0239 5.53212L13.3774 5.17857L13.0239 4.82502ZM11.2261 3.02723L11.5796 2.67367V2.67367L11.2261 3.02723ZM3.10808 11.1452C0.963977 9.00115 0.963974 5.52488 3.10807 3.38078L2.40096 2.67367C-0.133658 5.20829 -0.133653 9.31773 2.40097 11.8524L3.10808 11.1452ZM13.3534 21.3906L3.10808 11.1452L2.40097 11.8524L12.6463 22.0977L13.3534 21.3906ZM12.6703 21.3666L12.6463 21.3906L13.3535 22.0977L13.3774 22.0737L12.6703 21.3666ZM13.4014 21.3906L13.3774 21.3666L12.6703 22.0737L12.6943 22.0977L13.4014 21.3906ZM22.8919 11.193L12.6943 21.3906L13.4014 22.0977L23.599 11.9001L22.8919 11.193ZM22.8919 3.42854C25.036 5.57264 25.036 9.04891 22.8919 11.193L23.599 11.9001C26.1336 9.36549 26.1336 5.25606 23.599 2.72143L22.8919 3.42854ZM15.1275 3.42854C17.2716 1.28444 20.7478 1.28444 22.8919 3.42854L23.599 2.72143C21.0644 0.186811 16.955 0.18681 14.4204 2.72143L15.1275 3.42854ZM13.3774 5.17857L15.1275 3.42854L14.4204 2.72143L12.6703 4.47146L13.3774 5.17857ZM10.8725 3.38078L12.6703 5.17857L13.3774 4.47146L11.5796 2.67367L10.8725 3.38078ZM3.10807 3.38078C5.25217 1.23668 8.72844 1.23668 10.8725 3.38078L11.5796 2.67367C9.04502 0.13905 4.93559 0.139049 2.40096 2.67367L3.10807 3.38078Z" fill="#0F0F0F"/>
</svg>
