<svg width="24" height="21" viewBox="0 0 24 21" fill="none" xmlns="http://www.w3.org/2000/svg">
<mask id="path-1-inside-1" fill="white">
<path fill-rule="evenodd" clip-rule="evenodd" d="M1.75452 2.02722C-0.584842 4.36658 -0.584838 8.15944 1.75452 10.4988L11.9999 20.7442L12.0239 20.7202L12.0479 20.7442L22.2455 10.5466C24.5848 8.2072 24.5848 4.41435 22.2455 2.07499C19.9061 -0.264373 16.1133 -0.264374 13.7739 2.07499L12.0239 3.82502L10.2261 2.02723C7.88673 -0.312134 4.09388 -0.312136 1.75452 2.02722Z"/>
</mask>
<path d="M1.75452 10.4988L2.46163 9.79169L1.75452 10.4988ZM1.75452 2.02722L2.46162 2.73433V2.73433L1.75452 2.02722ZM11.9999 20.7442L11.2928 21.4513L11.9999 22.1584L12.707 21.4513L11.9999 20.7442ZM12.0239 20.7202L12.731 20.0131L12.0239 19.3059L11.3168 20.0131L12.0239 20.7202ZM12.0479 20.7442L11.3407 21.4513L12.0478 22.1584L12.755 21.4513L12.0479 20.7442ZM22.2455 10.5466L22.9526 11.2537L22.2455 10.5466ZM22.2455 2.07499L22.9526 1.36788V1.36788L22.2455 2.07499ZM13.7739 2.07499L14.481 2.78209L13.7739 2.07499ZM12.0239 3.82502L11.3168 4.53212L12.0239 5.23923L12.731 4.53212L12.0239 3.82502ZM10.2261 2.02723L10.9332 1.32012V1.32012L10.2261 2.02723ZM2.46163 9.79169C0.512792 7.84285 0.51279 4.68317 2.46162 2.73433L1.04741 1.32012C-1.68247 4.05 -1.68247 8.47602 1.04741 11.2059L2.46163 9.79169ZM12.707 20.0371L2.46163 9.79169L1.04741 11.2059L11.2928 21.4513L12.707 20.0371ZM11.3168 20.0131L11.2928 20.0371L12.707 21.4513L12.731 21.4273L11.3168 20.0131ZM12.755 20.0371L12.731 20.0131L11.3168 21.4273L11.3407 21.4513L12.755 20.0371ZM21.5384 9.83945L11.3408 20.0371L12.755 21.4513L22.9526 11.2537L21.5384 9.83945ZM21.5384 2.78209C23.4872 4.73093 23.4872 7.89061 21.5384 9.83945L22.9526 11.2537C25.6825 8.52378 25.6825 4.09776 22.9526 1.36788L21.5384 2.78209ZM14.481 2.78209C16.4298 0.833257 19.5895 0.833257 21.5384 2.78209L22.9526 1.36788C20.2227 -1.362 15.7967 -1.36201 13.0668 1.36788L14.481 2.78209ZM12.731 4.53212L14.481 2.78209L13.0668 1.36788L11.3168 3.11791L12.731 4.53212ZM9.51898 2.73433L11.3168 4.53212L12.731 3.11791L10.9332 1.32012L9.51898 2.73433ZM2.46162 2.73433C4.41046 0.785496 7.57015 0.785497 9.51898 2.73433L10.9332 1.32012C8.20331 -1.40976 3.7773 -1.40977 1.04741 1.32012L2.46162 2.73433Z" fill="#FAFAFA" mask="url(#path-1-inside-1)"/>
</svg>
